<?xml version="1.0" encoding="UTF-8"?>
<svg id="Layer_1" data-name="Layer 1" xmlns="http://www.w3.org/2000/svg" version="1.1" viewBox="0 0 824.8 156.5">
  <defs>
    <style>
      .cls-1 {
        fill: #231f20;
        stroke-width: 0px;
      }
    </style>
  </defs>
  <path class="cls-1" d="M105.8,77c-.5-1.9-11.9-45.9-27.1-74.2l-1.3-2.4c-.1-.2-.4-.4-.6-.4H29.2c-.3,0-.5.1-.6.4l-1.3,2.4C12,31.1.7,75.1.2,77v.2c-.2.6-.2,1.1-.1,1.7v.2c5.6,32,26.3,72.8,27.2,74.5l1.3,2.4c.1.2.4.4.6.4h47.8c.3,0,.5-.1.6-.4l1.3-2.4c.9-1.7,21.6-42.5,27.1-74.5v-.2c.1-.6.1-1.1,0-1.7v-.2ZM70.6,10.4c.3,0,.5.1.6.4,10.5,20.7,19.1,49.1,22.7,62,.1.4-.2.8-.6.8-3,0-13.1,0-15.6,0s-.6-.2-.7-.6c0,0-9.9-57.9-10.7-62.3,0-.1,0-.3.2-.3h4ZM34.8,10.7c.1-.2.3-.4.6-.4,2.6,0,16.8,0,19.8,0,.3,0,.6.2.6.6l10.5,61c.2,1.2,0,1.6-1.3,1.6-8.3,0-46.1,0-52.3,0s-.8-.4-.6-.8c3.6-12.9,12.2-41.3,22.7-62ZM55.2,146.1h-19.7c-.3,0-.5-.1-.6-.4-4.5-9.2-17.4-37-23.1-61.1,0-.4.2-.8.7-.8h53.2c.4,0,.7.4.7.8l-10.5,60.9c0,.3-.3.6-.7.6ZM71.1,145.8c-.1.2-.3.4-.6.4-.8,0-2.4,0-3.5,0s-.7-.4-.7-.8l10.5-60.9c0-.3.3-.6.7-.6h16c.4,0,.8.4.7.8-5.7,24.1-18.6,51.8-23.1,61.1Z"/>
  <g>
    <path class="cls-1" d="M752.9,37.1l-18.6,17.2c-.1.1-.2.3-.2.5v47c0,.2,0,.4.2.5l18.6,17.1c.1.1.3.2.4.2h52.2c.2,0,.3,0,.4-.2l18.6-17.2c.1-.1.2-.3.2-.5v-47c0-.2,0-.4-.2-.5l-18.6-17.1c-.1-.1-.3-.2-.4-.2h-52.2c-.2,0-.3,0-.4.2ZM761.6,103.3l-8.6-7.9c-.1-.1-.2-.3-.2-.5v-33.4c.1-.2.2-.4.3-.5l8.6-7.9c.1-.1.3-.2.4-.2h34.3c.2,0,.3,0,.4.2l8.7,7.9c.1.1.2.3.2.5l.2,33.4c0,.2,0,.4-.2.5l-8.8,7.9c-.1.1-.3.2-.4.2h-34.6c-.2,0-.3,0-.4-.2Z"/>
    <path class="cls-1" d="M674.5,102.6V37.6c0-.4-.3-.6-.6-.6h-17.2c-.4,0-.6.3-.6.6v81.4c0,.4.3.6.6.6h67.7c.4,0,.6-.3.6-.6v-15c0-.4-.3-.6-.6-.6h-49.1c-.4,0-.6-.3-.6-.6Z"/>
    <path class="cls-1" d="M584,85.3h43.8c.4,0,.6-.3.6-.6v-13.6c0-.4-.3-.6-.6-.6h-43.9c-.4,0-.6-.3-.6-.6v-16.3c.1-.4.4-.6.8-.6h58.2c.4,0,.6-.3.6-.6v-14.7c0-.4-.3-.6-.6-.6h-76.8c-.4,0-.6.3-.6.6v81.4c0,.4.3.6.6.6h78.1c.4,0,.6-.3.6-.6v-14.6c0-.4-.3-.6-.6-.6h-59.5c-.4,0-.6-.3-.6-.6v-17c0-.4.3-.6.6-.6Z"/>
    <path class="cls-1" d="M501.1,85.8h-2c-.2,0-.4-.1-.5-.3l-22.6-48.2c-.1-.2-.3-.4-.6-.4h-27.8c-.4,0-.6.3-.6.6v81.4c0,.4.3.6.6.6h16.9c.4,0,.6-.3.6-.6v-61.2c0-.3.3-.6.6-.6h1.1c.2,0,.4.1.5.3l22.6,48.4c.1.2.3.4.6.4h18.8c.3,0,.5-.1.6-.4l22.6-48.4c0-.2.3-.3.5-.3h1.1c.3,0,.6.3.6.6v61.3c.1.4.4.6.8.6h17c.4,0,.6-.3.6-.6V37.6c0-.4-.3-.6-.6-.6h-27.9c-.3,0-.5.1-.6.4l-22.3,48.2c0,.2-.3.3-.5.3Z"/>
    <path class="cls-1" d="M374.6,37.3l-36.2,76.5c0,0,0,.2,0,.3v4.9c0,.4.3.6.6.6h16.4c.3,0,.5-.1.6-.4l7.7-17c.1-.2.3-.4.6-.4h46.4c.3,0,.5.1.6.4l7.7,16.9c.1.2.3.4.6.4h17.1c.4,0,.6-.3.6-.6v-4.9c0,0,0-.2,0-.3l-36.5-76.5c-.1-.2-.3-.4-.6-.4h-24.9c-.2,0-.5.1-.6.4ZM386.6,52.8h1.8c.3,0,.5.1.6.4l14.4,31.8c.2.4-.1.9-.6.9h-30.7c-.5,0-.8-.5-.6-.9l14.5-31.8c.1-.2.3-.4.6-.4Z"/>
    <path class="cls-1" d="M309.2,70h-46.1c-.4,0-.6-.3-.6-.6v-31.8c-.1-.4-.4-.6-.8-.6h-17.3c-.4,0-.6.3-.6.6v81.4c0,.4.3.6.6.6h17.2c.4,0,.6-.3.6-.6v-32c0-.4.3-.6.6-.6h46.3c.4,0,.6.3.6.6v32c0,.4.3.6.6.6h17.3c.4,0,.6-.3.6-.6V37.6c0-.4-.3-.6-.6-.6h-17.3c-.4,0-.6.3-.6.6v31.8c-.1.4-.4.6-.8.6Z"/>
    <path class="cls-1" d="M153.9,54.8v47c0,.2,0,.4.2.5l18.6,17.1c.1.1.3.2.4.2h58c.4,0,.6-.3.6-.6v-14.8c0-.4-.3-.6-.6-.6h-49.3c-.2,0-.3,0-.4-.2l-8.6-7.9c-.1-.1-.2-.3-.2-.5v-33.4c.1-.2.2-.4.3-.5l8.6-7.9c.1-.1.3-.2.4-.2h49.2c.4,0,.6-.3.6-.6v-14.8c0-.4-.3-.6-.6-.6h-58c-.2,0-.3,0-.4.2l-18.6,17.2c-.1.1-.2.3-.2.5Z"/>
  </g>
</svg>